<svg width="41" height="33" viewBox="0 0 41 33" fill="none" xmlns="http://www.w3.org/2000/svg">
<path d="M38.919 22.7739C38.919 24.1044 37.426 25.7399 36.2118 25.7399H35.1062C35.1074 17.5973 35.1074 8.46873 35.1062 6.8484C35.1057 6.80043 35.1141 6.75282 35.131 6.70832C35.1479 6.66381 35.1728 6.62328 35.2044 6.58904C35.236 6.55481 35.2737 6.52754 35.3152 6.5088C35.3568 6.49006 35.4014 6.48022 35.4465 6.47985H38.5771C38.7651 6.47985 38.9192 6.6476 38.9192 6.85129V22.7739H38.919ZM33.8175 28.5972C33.8175 29.4394 33.43 30.8502 30.8338 30.8502C25.8026 30.8502 22.7141 26.659 22.7141 23.6531C22.7141 23.6531 22.7085 13.9337 22.7085 6.85148C22.708 6.80342 22.7164 6.75574 22.7333 6.71116C22.7502 6.66659 22.7752 6.62601 22.8069 6.59175C22.8386 6.5575 22.8763 6.53025 22.918 6.51157C22.9596 6.49289 23.0043 6.48315 23.0495 6.48292H26.1839C26.3721 6.48292 26.5266 6.64959 26.5266 6.85454V22.4713C26.5266 25.0515 28.4472 27.1444 30.8148 27.1444H33.8192L33.8175 28.5972ZM38.8147 5.07928H35.2084C34.4416 5.07928 33.8172 5.76024 33.8172 6.5956V25.7415H30.8126C29.1549 25.7415 27.8114 24.277 27.8114 22.4709V6.5956C27.8114 5.75826 27.1877 5.07856 26.4194 5.07856H22.8116C22.0433 5.07856 21.4198 5.75826 21.4187 6.5956C21.4168 13.5179 21.4243 23.6535 21.4243 23.6535C21.4248 28.9811 26.9043 32.2524 30.8328 32.2524C33.4678 32.2524 35.1045 30.8488 35.1045 28.5876V27.1441H36.2113C38.1526 27.1441 40.206 24.8982 40.206 22.7739V6.5956C40.2078 5.75826 39.5844 5.07856 38.8149 5.07856V5.07928H38.8147ZM17.5009 25.4011C17.5013 25.4491 17.4928 25.4967 17.4759 25.5412C17.459 25.5857 17.434 25.6262 17.4023 25.6604C17.3707 25.6946 17.333 25.7217 17.2914 25.7404C17.2498 25.759 17.2051 25.7687 17.16 25.769H14.0257C13.8349 25.769 13.6821 25.6008 13.6829 25.3982V9.78134C13.6829 7.20125 11.7618 5.10836 9.39477 5.10836H6.39015V3.65525C6.39015 2.81484 6.7777 1.40218 9.37388 1.40218C14.4052 1.40218 17.4946 5.59321 17.4946 8.59929C17.4946 8.59929 17.5002 18.3658 17.5002 25.4009H17.5009V25.4011ZM1.629 25.7722C1.43828 25.7663 1.28578 25.6028 1.28798 25.4V9.48032C1.28798 8.14965 2.78112 6.51199 3.99489 6.51199H5.10149C5.09979 18.1724 5.09979 24.1391 5.10149 25.3993C5.10235 25.4967 5.0669 25.5905 5.00289 25.6601C4.93889 25.7298 4.85154 25.7696 4.75996 25.771H1.62951L1.629 25.7722ZM18.781 8.59946C18.7817 3.27134 13.302 0 9.37405 0C6.7383 0 5.10149 1.40345 5.10149 3.66482V5.10836H3.9954C2.0534 5.10836 0 7.3542 0 9.4787V25.6568C0 26.4942 0.623442 27.1739 1.39141 27.1739H4.99705C5.01947 27.1739 5.03866 27.1674 5.06107 27.1674C5.79796 27.1296 6.38828 26.4698 6.38828 25.6568V6.51091H9.39341C11.0504 6.51091 12.3946 7.97539 12.3946 9.78153V25.657C12.3946 26.4943 13.0182 27.174 13.786 27.174H17.3946C18.1629 27.174 18.786 26.4961 18.786 25.657C18.7887 18.6056 18.7815 8.5991 18.7815 8.5991L18.781 8.59946Z" fill="white"/>
</svg>
